<?xml version="1.0" encoding="UTF-8"?>
<svg id="Layer_1" data-name="Layer 1" xmlns="http://www.w3.org/2000/svg" viewBox="0 0 512 512">
  <defs>
    <style>
      .cls-1 {
        fill: #272727;
      }

      .cls-2 {
        fill: #fff;
      }
    </style>
  </defs>
  <rect class="cls-1" width="512" height="512"/>
  <path class="cls-2" d="M272.780911,149.796759c12.148728-6.716649,20.386114-19.690394,20.386114-34.603711,0-21.805117-17.598348-39.481769-39.307119-39.481769s-39.307119,17.676652-39.307119,39.481769c0,12.37412,5.679271,23.404534,14.548981,30.643631l-1.577617,1.850367-104.469641,188.324895,94.686462,100.276778s171.204519-42.626354,171.204519-43.674507c0-.814242-80.301857-168.133353-116.164579-242.817455ZM350.861175,352.433592l-61.518292-56.42925-22.336962-126.223015,83.855254,182.652265ZM278.885407,301.065446l-39.481769,6.553776,12.927639-141.232928,26.55413,134.679152ZM214.247086,413.927328c-22.128484-24.457699-44.256967-48.915523-66.385451-73.373222l74.4215-16.771076c-2.678641,30.048141-5.357408,60.096157-8.036049,90.144298ZM147.861635,325.612851l92.939582-164.998165-16.771076,150.751376-76.168506,14.246788ZM237.307206,321.337298l46.120365-10.132606,78.264937,71.277041-134.168356,34.59018,9.783055-95.734615Z"/>
</svg>